<?xml version="1.0" standalone="no"?>
<!DOCTYPE svg PUBLIC "-//W3C//DTD SVG 20010904//EN"
 "http://www.w3.org/TR/2001/REC-SVG-20010904/DTD/svg10.dtd">
<svg version="1.0" xmlns="http://www.w3.org/2000/svg"
 width="300.000000pt" height="63.000000pt" viewBox="0 0 300.000000 63.000000"
 preserveAspectRatio="xMidYMid meet">
<metadata>
Created by potrace 1.10, written by Peter Selinger 2001-2011
</metadata>
<g transform="translate(0.000000,63.000000) scale(0.100000,-0.100000)"
fill="#000000" stroke="none">
<path d="M2102 573 c-46 -45 -50 -46 -78 -24 -40 32 -126 30 -159 -4 -22 -22
-25 -32 -25 -105 0 -90 -2 -91 -64 -36 -16 15 -37 26 -47 26 -10 0 -21 4 -24
10 -8 13 -102 13 -110 0 -4 -6 -11 -8 -16 -4 -5 3 -33 -8 -63 -25 -29 -17 -56
-31 -60 -31 -3 0 -6 31 -6 69 0 58 -3 72 -25 95 -20 22 -32 26 -78 26 -67 0
-107 -26 -107 -70 0 -33 -23 -60 -51 -60 -36 0 -86 -27 -126 -69 l-39 -41 -35
36 c-51 53 -98 74 -169 74 -67 0 -119 -21 -159 -64 -14 -14 -29 -26 -35 -26
-6 1 -23 19 -38 40 -47 68 -98 51 -228 -73 -45 -42 -46 -47 -26 -85 24 -46 52
-65 86 -59 31 7 39 -3 18 -21 -26 -20 -76 -24 -107 -7 -33 16 -61 61 -61 95 0
21 90 120 109 120 5 0 29 18 52 40 24 22 47 40 51 40 15 0 29 42 23 70 -9 40
-38 70 -68 70 -24 0 -83 -35 -193 -115 -54 -39 -104 -105 -115 -152 -17 -71
-20 -103 -12 -115 4 -7 9 -22 10 -33 6 -37 54 -106 95 -135 40 -29 44 -30 160
-30 132 0 145 5 212 77 l31 35 33 -41 c18 -23 28 -42 22 -46 -27 -16 1 -21
130 -20 102 0 139 3 136 12 -3 6 13 30 35 54 l39 43 47 -45 c26 -24 51 -48 55
-54 4 -6 57 -10 123 -10 95 0 114 2 110 14 -3 8 10 31 32 53 l38 39 30 -34
c66 -73 82 -79 215 -75 82 2 119 6 116 14 -4 11 27 44 42 44 5 0 21 -14 37
-30 25 -26 36 -30 81 -30 36 0 59 6 77 20 31 25 39 25 62 0 14 -15 31 -20 72
-20 59 0 87 19 105 71 l10 29 18 -23 c10 -12 40 -35 67 -49 43 -24 59 -26 157
-27 60 0 118 4 128 10 14 8 23 8 31 0 6 -6 35 -11 64 -11 89 0 150 52 188 159
8 23 24 55 35 71 29 40 29 151 0 180 -26 26 -90 26 -147 1 -43 -20 -93 -88
-93 -129 0 -26 -10 -52 -20 -52 -5 0 -16 24 -24 54 -30 103 -100 156 -206 156
-71 0 -116 -17 -160 -59 -34 -32 -50 -32 -50 -2 0 9 -5 22 -12 29 -9 9 -9 18
0 37 20 44 14 75 -22 111 -39 39 -93 46 -124 17z m-1634 -39 c12 -20 22 -39
22 -43 0 -3 -48 -42 -106 -86 -115 -85 -144 -120 -144 -175 0 -125 169 -175
249 -74 19 24 31 104 16 104 -3 0 -25 -16 -51 -35 -25 -19 -49 -35 -54 -35
-10 0 -50 62 -50 77 0 11 174 143 188 143 6 0 24 -28 41 -62 54 -107 38 -216
-41 -283 -49 -41 -90 -55 -163 -55 -54 0 -75 5 -112 27 -117 69 -154 214 -80
324 18 28 240 208 257 208 3 0 15 -16 28 -35z m1734 -1 c22 -20 24 -66 2 -87
-35 -35 -114 -9 -114 38 0 57 69 88 112 49z m-792 -170 c-1 -220 -16 -263
-105 -304 -169 -78 -335 109 -232 262 35 52 82 79 138 79 l49 0 0 -70 0 -69
-29 5 c-24 5 -32 1 -46 -20 -16 -24 -16 -28 -1 -52 13 -18 24 -24 44 -22 45 5
53 36 50 206 l-3 152 68 0 67 0 0 -167z m600 -68 c0 -129 1 -238 3 -241 1 -3
-28 -7 -66 -8 l-67 -1 0 243 0 242 65 0 65 0 0 -235z m-278 102 l47 -22 -40
-65 c-22 -36 -43 -66 -47 -67 -7 -3 -92 156 -92 170 0 16 88 5 132 -16z m-115
-57 l41 -70 -109 0 c-60 0 -109 2 -109 5 0 35 95 133 130 135 3 0 24 -32 47
-70z m-710 44 c71 -34 114 -128 93 -205 -14 -51 -71 -115 -117 -130 -82 -27
-177 9 -224 85 -28 44 -23 148 10 194 47 67 159 93 238 56z m1313 -161 l0
-178 -65 0 -65 0 0 178 0 177 65 0 65 0 0 -177z m356 150 c52 -37 68 -83 72
-210 l4 -113 -68 0 -69 0 -2 96 c-1 58 -7 101 -14 110 -19 23 -61 13 -78 -18
-14 -24 -14 -28 4 -48 12 -13 28 -20 41 -17 21 4 23 0 26 -66 l3 -69 -53 4
c-90 8 -162 85 -162 175 0 72 29 123 95 165 43 27 157 22 201 -9z m369 -53 c0
-60 -2 -70 -17 -70 -20 0 -38 -29 -38 -63 0 -40 -43 -108 -80 -128 -19 -11
-54 -19 -77 -19 l-43 0 0 70 c0 68 1 70 25 70 30 0 45 30 45 90 0 27 8 48 27
70 32 39 55 49 113 49 l45 1 0 -70z m-1118 -10 c14 -26 23 -61 23 -87 l0 -43
-90 0 -90 0 58 89 c31 50 61 89 67 87 5 -1 19 -22 32 -46z m-227 -59 c0 -4 -8
-19 -19 -32 -10 -13 -33 -50 -51 -81 -17 -32 -36 -58 -40 -58 -27 0 -73 141
-55 169 7 13 165 15 165 2z m41 -140 c44 -84 45 -90 26 -95 -38 -10 -157 25
-157 46 0 12 73 138 80 138 3 0 26 -40 51 -89z m197 44 c7 -6 -27 -61 -50 -81
-12 -12 -37 -29 -54 -37 -31 -16 -31 -16 -47 16 -9 18 -28 51 -42 74 l-26 43
108 -6 c59 -4 109 -8 111 -9z"/>
<path d="M782 258 c-28 -28 -2 -88 38 -88 40 0 66 60 38 88 -7 7 -24 12 -38
12 -14 0 -31 -5 -38 -12z"/>
</g>
</svg>
